<svg xmlns="http://www.w3.org/2000/svg" width="1024" height="1024" viewBox="0 0 1024 1024">
  <!-- 背景 - 使用苹果风格的渐变 -->
  <defs>
    <linearGradient id="appGradient" x1="0%" y1="0%" x2="100%" y2="100%">
      <stop offset="0%" stop-color="#0A84FF" />
      <stop offset="100%" stop-color="#0066CC" />
    </linearGradient>
  </defs>
  
  <!-- 圆角矩形背景 - 类似iOS应用图标 -->
  <rect x="112" y="112" width="800" height="800" rx="180" ry="180" fill="url(#appGradient)" />
  
  <!-- LEiP文字 - 极简现代风格 -->
  <g fill="white">
    <!-- L -->
    <rect x="242" y="362" width="60" height="300" rx="10" ry="10" />
    <rect x="242" y="602" width="100" height="60" rx="10" ry="10" />
    
    <!-- E -->
    <rect x="372" y="362" width="60" height="300" rx="10" ry="10" />
    <rect x="372" y="362" width="120" height="60" rx="10" ry="10" />
    <rect x="372" y="482" width="100" height="60" rx="10" ry="10" />
    <rect x="372" y="602" width="120" height="60" rx="10" ry="10" />
    
    <!-- i -->
    <circle cx="552" cy="412" r="30" fill="#FF9500" />
    <rect x="522" y="462" width="60" height="200" rx="30" ry="30" />
    
    <!-- P -->
  </g>
  
  <!-- P 字符 - 使用橙色并放大尺寸 -->
  <g fill="#FF9500">
    <rect x="622" y="342" width="70" height="320" rx="12" ry="12" />
    <path d="M622 342 A70 70 0 0 1 622 482 L692 482 A70 70 0 0 0 692 342 Z" />
  </g>
  
  <!-- 装饰元素：小气泡 - 代表语言学习 -->
  <circle cx="750" cy="280" r="40" fill="#FF9500" opacity="0.9" />
  <circle cx="280" cy="750" r="30" fill="#FF9500" opacity="0.7" />
</svg>